<?xml version="1.0" standalone="no"?><!DOCTYPE svg PUBLIC "-//W3C//DTD SVG 1.1//EN" "http://www.w3.org/Graphics/SVG/1.1/DTD/svg11.dtd"><svg t="1656514209080" class="icon" viewBox="0 0 1024 1024" version="1.1" xmlns="http://www.w3.org/2000/svg" p-id="7087" width="200" height="200" xmlns:xlink="http://www.w3.org/1999/xlink"><defs><style type="text/css">@font-face { font-family: feedback-iconfont; src: url("//at.alicdn.com/t/font_1031158_u69w8yhxdu.woff2?t=1630033759944") format("woff2"), url("//at.alicdn.com/t/font_1031158_u69w8yhxdu.woff?t=1630033759944") format("woff"), url("//at.alicdn.com/t/font_1031158_u69w8yhxdu.ttf?t=1630033759944") format("truetype"); }
</style></defs><path d="M731.788 0.007H330.084C168.975 0.007 37.9 131.081 37.9 292.191v99.579c0 15.77 12.782 28.554 28.554 28.554s28.554-12.785 28.554-28.554v-99.58c0-129.62 105.455-235.075 235.076-235.075h401.704c129.62 0 235.075 105.455 235.075 235.076v401.707c0 129.62-105.455 235.07-235.075 235.07H330.084c-129.62 0-235.076-105.45-235.076-235.07V574.517h116.124a28.552 28.552 0 0 0 26.017-16.786l26.016-57.516L370.51 761.636a28.55 28.55 0 0 0 27.4 17.691 28.561 28.561 0 0 0 26.116-19.547l138.99-419.023 58.463 206.88c3.474 12.297 14.7 20.791 27.478 20.791h224.63c15.771 0 28.553-12.782 28.553-28.554s-12.782-28.554-28.554-28.554H670.564l-77.882-275.606c-3.413-12.069-14.3-20.5-26.837-20.78-12.364-0.363-23.796 7.649-27.745 19.555l-144.027 434.19-103.229-251.397a28.542 28.542 0 0 0-25.91-17.701c-11.266-0.404-21.824 6.397-26.52 16.781l-45.703 101.047H28.576C12.804 517.409 0.02 530.19 0.02 545.963s12.783 28.554 28.555 28.554H37.9v119.381c0 161.108 131.075 292.178 292.184 292.178h401.704c161.113 0 292.183-131.07 292.183-292.178V292.191c0-161.11-131.07-292.184-292.183-292.184z" p-id="7088"></path></svg>